<svg id="Layer_1" data-name="Layer 1" xmlns="http://www.w3.org/2000/svg" viewBox="0 0 228.67 39.09"><defs><style>.cls-1{fill:#1f5aa9;}.cls-2{fill:#fff;}</style></defs><path class="cls-1" d="M61.82,11.44c0-2.91,0-5.82,0-8.72,0-1,.33-1.27,1.3-1.29,3.72-.05,3.72-.08,3.72,3.58,0,4.58,0,9.16,0,13.74,0,1.4.53,1.95,1.88,1.95q6.78,0,13.57,0A1.74,1.74,0,0,0,84,19.6c2.4-5.16,4.86-10.3,7.25-15.47.77-1.68,1.75-3,3.77-3s3,1.08,3.79,2.74c3.09,6.62,6.23,13.21,9.33,19.82.79,1.68.73,1.75-1.11,1.76-5.12,0-10.24,0-15.35,0-1.14,0-1.48.09-1-1.42.88-3,2.67-3.74,5.47-3.36a27,27,0,0,0,3.71,0c1,0,1.45-.39,1-1.41-1.49-3.16-3-6.33-4.5-9.47-.23-.48-.42-1.19-1.17-1.17s-.86.69-1.11,1.22c-2.3,4.85-4.63,9.69-6.9,14.55a1.61,1.61,0,0,1-1.73,1.06c-5.87,0-11.75,0-17.62,0-3.72,0-5.92-2.21-6-5.93C61.81,16.83,61.82,14.14,61.82,11.44Z"/><path class="cls-1" d="M163.56,15c0,2.91,0,5.82,0,8.72,0,1.2-.29,1.79-1.63,1.75-3.64-.12-3.1.4-3.13-3.07,0-4.69,0-9.37,0-14.06,0-1.87-.21-1.93-2.6-2-1.43,0-2.16.25-2.13,1.94.1,5.17,0,10.34.05,15.51,0,1.21-.25,1.71-1.6,1.69-3.39,0-3.4,0-3.4-3.42,0-4.58-.07-9.16,0-13.73,0-1.8-.8-2-2.26-2-2.32.07-2.48.1-2.48,1.94,0,5.17,0,10.34,0,15.51,0,1.25-.32,1.69-1.63,1.66-3.32,0-3.31,0-3.31-3.35,0-4.9,0-9.8,0-14.7,0-3.79,2.09-5.93,5.85-5.94,2,0,4.1-.41,6,.74a.78.78,0,0,0,.61-.05c2.36-1.17,4.85-.77,7.29-.54a4.82,4.82,0,0,1,4.3,4.82c.05,2.85,0,5.7,0,8.56Z"/><path class="cls-1" d="M126.58,1.46c3.24,0,6.47,0,9.7,0,1.14,0,1.66.23,1.64,1.5-.08,4.21.39,3.39-3.41,3.43-5.38,0-10.77,0-16.16,0-2.27,0-2.35.08-2.34,2.38s.07,2.32,2.41,2.33c3.77,0,7.54,0,11.31,0,3.43,0,5.28,1.88,5.34,5.31,0,1.29,0,2.59,0,3.88-.07,3-1.93,5.07-4.91,5.12-5.92.1-11.85,0-17.78.05-.92,0-1.16-.36-1.18-1.24-.1-3.5-.14-3.5,3.39-3.5,4.47,0,8.94,0,13.42,0,2.1,0,2.37-.31,2.37-2.48s-.23-2.34-2.31-2.35c-3.66,0-7.33-.12-11,0-3.42.13-6.34-2.23-5.88-6a31.64,31.64,0,0,0,0-3.23c0-2.94,1.59-4.89,4.54-5.07,3.6-.22,7.21-.05,10.82-.05Z"/><path class="cls-1" d="M184.34,25.43c-2.69,0-5.38,0-8.07,0-1.16,0-1.31-.46-.89-1.34s1-1.8,1.41-2.72c.32-.7.9-.66,1.5-.66l5.81,0c1.7,0,1.87-.22,1.2-1.71-1.43-3.18-2.93-6.32-4.4-9.48-.21-.45-.41-.92-1-.87s-.87.59-1.09,1.06c-1.77,3.8-3.52,7.6-5.28,11.4-.54,1.17-1.09,2.33-1.62,3.51a1.17,1.17,0,0,1-1.23.83c-.32,0-.64,0-1,0-3.49,0-3.59,0-2.14-3.19,2.92-6.33,6-12.59,8.93-18.9A3.49,3.49,0,0,1,180,1.14a3.94,3.94,0,0,1,3.55,2.61q4.44,9.48,8.84,19c1.26,2.72,1.24,2.73-1.79,2.73h-6.3Z"/><path class="cls-1" d="M44.44,1.47c2.64,0,5.28,0,7.92,0,3.6,0,5.69,2.15,5.72,5.74,0,1.18,0,2.37,0,3.55a5,5,0,0,1-4.87,5c-3.82.09-7.65,0-11.47,0-2.33,0-2.38.08-2.39,2.34,0,1.94,0,3.88,0,5.82,0,1-.25,1.46-1.36,1.44-4.06-.06-3.35.41-3.39-3.27,0-3.13,0-6.25,0-9.38,0-1.3.32-1.77,1.71-1.75,5,.08,9.91,0,14.86,0,1.93,0,2.17-.27,2.17-2.3,0-2.21-.15-2.39-2.18-2.4-5,0-9.92,0-14.87,0-1.26,0-1.72-.35-1.69-1.64.09-3.88-.38-3.27,3.23-3.3C40,1.46,42.23,1.47,44.44,1.47Z"/><path class="cls-2" d="M99.56,37.66c-.57-1.3,0-2.74-.4-4.15-.86.3-.88,1.15-1.23,1.73-.21.37-.27.9-.76,1s-.58-.53-.84-.84c-.48-.59-.43-2-1.29-1.72-.67.19-.18,1.45-.28,2.23-.07.57.12,1.18-.21,1.75-.72-.18-.43-.78-.44-1.18,0-1.4,0-2.8,0-4.2,0-.47-.35-1.23.38-1.36s.75.67,1,1.12c.37.72.66,1.47,1,2.21.13.28.23.65.62.66s.46-.36.6-.65c.44-1,.9-1.95,1.37-2.92.14-.3.35-.55.74-.46s.31.27.31.49q0,3.18,0,6.34Z"/><path class="cls-2" d="M160.53,37.55c-.47-1.29.13-2.74-.48-4.21a7.54,7.54,0,0,0-1.27,2.11c-.17.32-.22.77-.7.78s-.53-.44-.71-.76c-.4-.66-.43-1.56-1.54-2.16v4.33c-1-.92-.63-2-.7-3a28.05,28.05,0,0,1,0-2.9c0-.35-.12-.85.4-.92s.55.42.71.75c.45.92.92,1.82,1.34,2.75s.77.61,1.07,0c.47-1,.87-2,1.32-2.94.13-.28.33-.58.72-.51s.33.26.33.48v6.19Z"/><path class="cls-2" d="M131.86,30.9v6.31c0,.22-.1.5-.31.48a1.08,1.08,0,0,1-.64-.41c-.68-1-1.32-2-2-2.94-.32-.48-.68-.93-1.13-1.54-.72,1.65,0,3.31-.54,4.77h-.5V31.27a.37.37,0,0,1,.39-.41c.37,0,.57.27.75.54.75,1.11,1.48,2.24,2.22,3.36.18.26.33.64.7.59.54-.08.37-.58.37-.92,0-1.17,0-2.34,0-3.52Z"/><path class="cls-2" d="M174.4,34.14a4.73,4.73,0,0,1,0-1.13c.22-.82-.73-2.18,1.11-2.27,2.32-.12,3.37.48,3.57,2.25a12.44,12.44,0,0,1,0,1.93,3,3,0,0,1-4.19,2.83c-.56-.2-.52-.62-.53-1C174.39,35.86,174.4,35,174.4,34.14Zm.7,0c0,.43,0,.86,0,1.29.06.69-.27,1.62.9,1.7s2.07-.22,2.34-1.46a7.16,7.16,0,0,0,0-2.88c-.26-1.24-1.2-1.52-2.32-1.45s-.88,1-.93,1.68A10.46,10.46,0,0,0,175.1,34.15Z"/><path class="cls-2" d="M76,37.57c.73-2.06,1.43-4.12,2.2-6.16.25-.67.73-.9,1.06-.05.79,2,1.5,4.09,2.11,6.23-.87-.53-1.31-1.44-2.58-1.4a2.74,2.74,0,0,0-2.43,1.64Zm2.85-5.08c-.71.51-.67,1.28-1,1.89-.16.34-.45.86,0,1.16a1.78,1.78,0,0,0,1.69.05c.6-.28.18-.83.06-1.26A4,4,0,0,0,78.84,32.49Z"/><path class="cls-2" d="M109.72,37.58c-2.28-1.9-3.09-1.9-5.57,0,.78-2.13,1.5-4.28,2.37-6.37.33-.79.8-.25,1,.22C108.26,33.47,109,35.53,109.72,37.58ZM107,35.72c.33-.19,1.2.24,1-.68s-.35-2.34-1-2.31c-1,.06-.87,1.47-1.11,2.33S106.46,35.62,107,35.72Z"/><path class="cls-2" d="M59.53,37.78c0-2.24,0-4.31,0-6.38,0-.14.07-.39.17-.42a4.65,4.65,0,0,1,3.44.09,1.74,1.74,0,0,1,1,2,1.8,1.8,0,0,1-2.05,1.64c-1.57-.12-2,.61-1.83,2C60.34,37.06,60.38,37.48,59.53,37.78Zm1.79-6.46c-.93-.14-1,.6-1,1.51s.2,1.44,1.25,1.38,1.88-.24,1.85-1.48S62.52,31.38,61.32,31.32Z"/><path class="cls-2" d="M193.55,37.69c-1.29-2-2.92-2-4.77.17a4.35,4.35,0,0,1,.53-2.61c.41-1.27.93-2.51,1.42-3.75.17-.45.57-1.14.91-.38.94,2.09,1.65,4.28,2.45,6.43Zm-2.21-2c.38-.14,1.2.16,1-.74s-.28-2.27-1-2.27-.88,1.41-1.1,2.25S190.78,35.63,191.34,35.71Z"/><path class="cls-2" d="M170.08,30.76c-1.09,1.32-3.42-.64-3.51,1.91s2.12.75,3,1.7a2.88,2.88,0,0,1-1.71.22c-.85,0-1.31.26-1.31,1.19s.27,1.45,1.29,1.39a6.56,6.56,0,0,1,2.15.19c-1.15.58-2.36.34-3.54.36-.59,0-.56-.55-.56-1,0-1.67,0-3.33,0-5,0-.64.22-1,.92-1C167.83,30.77,168.84,30.76,170.08,30.76Z"/><path class="cls-2" d="M34.66,37.87c0-2.34,0-4.36,0-6.38,0-.2.11-.54.23-.57a4.77,4.77,0,0,1,3.45.21,1.85,1.85,0,0,1,.75,2.27C38.85,34.52,38,34.78,37,34.73c-1.25-.08-1.79.41-1.68,1.68A1.36,1.36,0,0,1,34.66,37.87Zm.7-5.06c-.19.9.12,1.44,1.24,1.41s1.88-.29,1.89-1.45-.8-1.37-1.76-1.44S35.21,31.66,35.36,32.81Z"/><path class="cls-2" d="M85.37,36.87c.75-.25,1.28.33,1.91.27.8-.08,1.56-.27,1.71-1.17s-.52-1.28-1.35-1.44S85.49,34.4,85.31,33A1.64,1.64,0,0,1,86,31.18a2.83,2.83,0,0,1,3.22.17c-.75.42-1.27-.11-1.83,0s-1.29.34-1.41,1.09.39,1.16,1.09,1.31l.63.14c1.19.23,2.23.65,2.06,2.15-.13,1.12-1.46,1.88-2.91,1.65C86.32,37.59,85.68,37.59,85.37,36.87Z"/><path class="cls-2" d="M136.09,30.83h4.27c-2.4.4-1.69,2.23-1.74,3.69,0,1,0,2,0,3-.79.22-.78-.22-.78-.59,0-1.13-.08-2.26,0-3.39C137.93,32.19,137.84,31.07,136.09,30.83Z"/><path class="cls-2" d="M69.13,30.94c0,1.37,0,2.74,0,4.11,0,2.06,0,2.05,2.16,2.12.4,0,.85-.15,1.31.35a12,12,0,0,1-3.66.21.5.5,0,0,1-.51-.52c0-2.1,0-4.21,0-6.31Z"/><path class="cls-2" d="M43.21,30.88H47.4c-2.27.07-1.77,1.71-1.83,3a13.15,13.15,0,0,1-.31,4,11.14,11.14,0,0,1-.35-4.37C44.9,32.31,45,31.09,43.21,30.88Z"/><path class="cls-2" d="M147.18,37.66c0-2.15,0-4.3,0-6.45a.43.43,0,0,1,.29-.3c.11,0,.35.13.35.21,0,2.18,0,4.36,0,6.55Z"/><path class="cls-2" d="M121.31,37.61V30.94h.33v6.66Z"/><path class="cls-2" d="M184.17,30.93V37.6h-.32V31Z"/></svg>